<svg width="96" height="96" viewBox="0 0 96 96" fill="none" xmlns="http://www.w3.org/2000/svg">
  <path d="M24 50C24 36 36 24 48 24C60 24 72 36 72 50C72 64 60 76 48 76C36 76 24 64 24 50Z" fill="#0F172A" stroke="#EAB308" stroke-width="4"/>
  <path d="M34 42C38 38 42 36 48 36C54 36 58 38 62 42" stroke="#FDE68A" stroke-width="4" stroke-linecap="round"/>
  <path d="M34 58C38 54 42 52 48 52C54 52 58 54 62 58" stroke="#FDE68A" stroke-width="4" stroke-linecap="round"/>
  <path d="M48 24V16" stroke="#FBBF24" stroke-width="4" stroke-linecap="round"/>
  <circle cx="48" cy="50" r="5" fill="#FFF7ED"/>
</svg>